<svg xmlns="http://www.w3.org/2000/svg" width="640" height="640" viewBox="0 0 640 640">
  <defs>
    <style>
      .a {
        fill: #231f20;
      }
    </style>
  </defs>
  <title>a</title>
  <path class="a" d="M0,0V640H640V0H0ZM619.90552,319.99988A299.90546,299.90546,0,0,0,469.95276,579.72565V579.726l-0.00024-.00018a299.90552,299.90552,0,0,0-299.90546,0l-0.00024.00012v-0.00018A299.90544,299.90544,0,0,0,20.09412,319.99988l-0.00024-.00012,0.00024-.00012A299.90544,299.90544,0,0,0,170.04681,60.2738V60.27362l0.00018,0.00012a299.90563,299.90563,0,0,0,299.90552,0l0.00024-.00012v0.00024A299.90546,299.90546,0,0,0,619.90552,319.99963l0.00018,0.00012Z"/>
</svg>
