<svg xmlns="http://www.w3.org/2000/svg" width="640" height="640" viewBox="0 0 640 640">
  <defs>
    <style>
      .a {
        fill: #231f20;
      }
    </style>
  </defs>
  <title>b</title>
  <path class="a" d="M0,0V640H640V0H0ZM579.72583,469.95245l0.00012,0.00031h-0.00031a299.90555,299.90555,0,0,0-259.72577,149.9527l-0.00012.00024-0.00006-.00018A299.90548,299.90548,0,0,0,60.27386,469.9527H60.27362l0.00012-.00024a299.90534,299.90534,0,0,0,0-299.90552l-0.00006-.00012H60.2738A299.90543,299.90543,0,0,0,319.99963,20.09406l0.00012-.00024,0.00012,0.00024A299.9055,299.9055,0,0,0,579.72571,170.04681H579.726l-0.00012.00018A299.90522,299.90522,0,0,0,579.72583,469.95245Z"/>
</svg>
