<svg xmlns="http://www.w3.org/2000/svg" width="640" height="640" viewBox="0 0 640 640">
  <defs>
    <style>
      .a {
        fill: #231f20;
      }
    </style>
  </defs>
  <title>c</title>
  <path class="a" d="M0,0V640H640V0H0ZM493.2052,319.99982A173.20535,173.20535,0,0,0,406.6026,470v0.00018l-0.00018-.00006a173.205,173.205,0,0,0-173.20526,0l-0.00012.00006v-0.00012a173.20543,173.20543,0,0,0-86.60266-150.00024l-0.00012-.00006,0.00012-.00006A173.2054,173.2054,0,0,0,233.397,169.99951v-0.00012l0.00006,0.00006a173.20545,173.20545,0,0,0,173.20532,0l0.00012-.00006v0.00012a173.20518,173.20518,0,0,0,86.60272,150.00018l0.00006,0.00006Z"/>
</svg>
