<svg xmlns="http://www.w3.org/2000/svg" width="640" height="640" viewBox="0 0 640 640">
  <defs>
    <style>
      .a {
        fill: #231f20;
      }
    </style>
  </defs>
  <title>d</title>
  <path class="a" d="M0,0V640H640V0H0ZM470.00012,406.60242l0.00006,0.00012H470A173.20523,173.20523,0,0,0,319.99988,493.2052l-0.00006.00012-0.00006-.00012a173.20543,173.20543,0,0,0-150.00024-86.60266h-0.00012l0.00006-.00012a173.20515,173.20515,0,0,0,0-173.20532l-0.00006-.00006h0.00012a173.20526,173.20526,0,0,0,150.00018-86.60266l0.00006-.00012,0.00012,0.00012A173.20507,173.20507,0,0,0,470.00006,233.397h0.00012l-0.00006.00012A173.20545,173.20545,0,0,0,470.00012,406.60242Z"/>
</svg>
