<svg xmlns="http://www.w3.org/2000/svg" width="640" height="640" viewBox="0 0 640 640">
  <defs>
    <style>
      .a {
        fill: #231f20;
      }
    </style>
  </defs>
  <title>k</title>
  <path class="a" d="M0,0V640H640V0H0ZM579.72058,469.77161c-108.4093-.03088-203.3623-57.5744-256.04871-143.76807-0.03284.01917-.06421,0.04047-0.09735,0.05914A300.30655,300.30655,0,0,1,320,619.85388a300.30655,300.30655,0,0,1-3.57452-293.7912c-0.03314-.01868-0.06451-0.04-0.09735-0.05914-52.6864,86.19366-147.6394,143.73718-256.04871,143.76807A299.88507,299.88507,0,0,1,312.712,320.09833c-0.0036-.06525-0.008-0.13019-0.00989-0.19592A299.89347,299.89347,0,0,1,60.01141,169.775c0.06049-.00006.12048-0.00232,0.181-0.00232,108.39612,0,203.35242,57.49695,256.06763,143.64813,0.03308-.01978.06537-0.04071,0.09875-0.06A300.30768,300.30768,0,0,1,320,19.69153a300.30768,300.30768,0,0,1,3.64124,293.66931c0.03339,0.01929.06567,0.04022,0.09875,0.06C376.4552,227.26965,471.4115,169.77271,579.80762,169.77271c0.06049,0,.12048.00226,0.181,0.00232A299.89347,299.89347,0,0,1,327.29785,319.9024c-0.00189.06573-.00629,0.13068-0.00989,0.19592A299.88507,299.88507,0,0,1,579.72058,469.77161Z"/>
</svg>
