<svg xmlns="http://www.w3.org/2000/svg" width="640" height="640" viewBox="0 0 640 640">
  <defs>
    <style>
      .a {
        fill: #231f20;
      }
    </style>
  </defs>
  <title>l</title>
  <path class="a" d="M0,0V640H640V0H0ZM326.25885,323.34259c-0.01886.033-.0354,0.06714-0.05475,0.09991A300.30626,300.30626,0,0,1,470.004,579.6604,300.30656,300.30656,0,0,1,320.01282,327.017c-0.038.00037-.07587-0.00238-0.11389-0.00256C317.368,428.0036,263.90808,525.31421,170.03833,579.54565A299.8849,299.8849,0,0,1,313.8147,323.70844c-0.03571-.05469-0.072-0.1087-0.10651-0.16473a299.89338,299.89338,0,0,1-293.90027-3.66876c0.05237-.03027.10315-0.06219,0.15558-0.09247,93.87378-54.19806,204.85681-51.88239,293.58508-3.63086,0.0188-.03369.03625-0.06793,0.05554-0.10138a298.62211,298.62211,0,0,1-103.4483-106.07538A298.6054,298.6054,0,0,1,169.92291,59.90454,298.60607,298.60607,0,0,1,279.77112,169.78247,298.623,298.623,0,0,1,319.91095,312.409c0.03857,0.00006.077,0.002,0.11554,0.00262,2.57709-100.96674,56.06317-198.23871,149.937-252.43677,0.05243-.03021.10547-0.05829,0.1579-0.0885a299.89335,299.89335,0,0,1-143.77289,256.3595c0.03125,0.05792.05988,0.11633,0.08942,0.17462a299.88487,299.88487,0,0,1,293.44965,3.4046C525.98688,374.00293,414.9834,371.64532,326.25885,323.34259Z"/>
</svg>
