<svg xmlns="http://www.w3.org/2000/svg" width="640" height="640" viewBox="0 0 640 640">
  <defs>
    <style>
      .a {
        fill: #231f20;
      }
    </style>
  </defs>
  <title>n</title>
  <path class="a" d="M0,0V640H640V0H0ZM320.13525,73.18854A49.28439,49.28439,0,0,1,369.41962,122.473c0,18.991-24.05762,107.63818-38.60223,159.4967-3.06116,10.91449-18.53424,10.90363-21.57983-.0152C294.77209,230.09381,270.85083,141.4621,270.85083,122.473A49.2844,49.2844,0,0,1,320.13525,73.18854ZM106.32263,196.47717a49.28439,49.28439,0,0,1,67.32373-18.03937c16.44672,9.49554,81.18866,74.65363,118.82709,113.17889,7.92163,8.10828.17572,21.50293-10.803,18.681C229.525,296.8949,140.80713,273.29547,124.362,263.80084A49.28432,49.28432,0,0,1,106.32263,196.47717Zm67.18848,264.85077a49.2844,49.2844,0,0,1-49.28436-85.3631c16.44672-9.49548,105.24622-32.98456,157.42932-46.31781,10.98279-2.80621,18.71,10.5993,10.77673,18.69623C254.75293,386.801,189.95624,451.83331,173.51111,461.32794ZM319.86475,566.8114A49.28437,49.28437,0,0,1,270.58038,517.527c0-18.991,24.05762-107.63824,38.60223-159.4967,3.06116-10.91449,18.53424-10.90363,21.57983.0152,14.46545,51.8606,38.38672,140.49231,38.38672,159.48151A49.28439,49.28439,0,0,1,319.86475,566.8114ZM533.67737,443.52283a49.28443,49.28443,0,0,1-67.32373,18.03931c-16.44672-9.49548-81.18866-74.65356-118.82709-113.17883-7.92163-8.10828-.17572-21.50293,10.803-18.68109C410.475,343.1051,499.19287,366.70453,515.638,376.1991A49.28438,49.28438,0,0,1,533.67737,443.52283ZM515.77325,264.0351C499.32654,273.53064,410.527,297.01971,358.34393,310.353c-10.98279,2.80621-18.71-10.5993-10.77673-18.69629,37.67987-38.45776,102.47656-103.49005,118.92169-112.98462A49.28437,49.28437,0,0,1,515.77325,264.0351Z"/>
</svg>
