<svg xmlns="http://www.w3.org/2000/svg" width="640" height="640" viewBox="0 0 640 640">
  <defs>
    <style>
      .a {
        fill: #231f20;
      }
    </style>
  </defs>
  <title>o</title>
  <path class="a" d="M0,0V640H640V0H0ZM329.70221,281.67041C343.1051,229.525,366.70453,140.80707,376.1991,124.362a49.28437,49.28437,0,1,1,85.363,49.28436c-9.49548,16.44672-74.65356,81.1886-113.17883,118.82709C340.275,300.39508,326.88037,292.64917,329.70221,281.67041ZM73.1886,319.86475A49.28437,49.28437,0,0,1,122.473,270.58038c18.991,0,107.63818,24.05762,159.4967,38.60223,10.91449,3.06116,10.90363,18.53418-.0152,21.57977-51.8606,14.46545-140.49231,38.38672-159.48151,38.38672A49.28437,49.28437,0,0,1,73.1886,319.86475Zm237.10919,38.46484C296.8949,410.47491,273.29547,499.19287,263.8009,515.638a49.28437,49.28437,0,0,1-85.363-49.28436c9.49548-16.44672,74.65356-81.18866,113.17883-118.82715C299.725,339.60486,313.11963,347.35083,310.29779,358.32959ZM291.65674,292.4328c-38.45782-37.67987-103.49005-102.47656-112.98468-118.92169a49.28437,49.28437,0,1,1,85.363-49.28436c9.49554,16.44672,32.98462,105.24622,46.31787,157.42932C313.15918,292.63885,299.75366,300.366,291.65674,292.4328ZM443.28857,533.81256a49.28436,49.28436,0,0,1-67.32367-18.03931C366.46936,499.32648,342.98029,410.527,329.647,358.34387c-2.80621-10.98273,10.5993-18.7099,18.69623-10.77673,38.45782,37.67993,103.49005,102.47662,112.98468,118.92169A49.28438,49.28438,0,0,1,443.28857,533.81256ZM517.527,369.41962c-18.991,0-107.63818-24.05762-159.4967-38.60223-10.91449-3.06116-10.90363-18.53424.0152-21.57983,51.8606-14.46545,140.49231-38.38672,159.48151-38.38672A49.28439,49.28439,0,0,1,517.527,369.41962Z"/>
</svg>
