<svg xmlns="http://www.w3.org/2000/svg" width="640" height="640" viewBox="0 0 640 640">
  <defs>
    <style>
      .a {
        fill: #231f20;
      }
    </style>
  </defs>
  <title>p-01</title>
  <path class="a" d="M0,0V640H640V0H0ZM531.93439,430.18182c7.92169,8.10828.17572,21.50293-10.803,18.68109-48.21582-12.39282-127.69293-33.50214-152.399-44.1192-3.248,26.87573-24.76556,106.03986-38.18536,153.88776-3.06116,10.91449-18.53424,10.90363-21.57983-.0152C295.59174,510.66376,274.13428,431.27979,270.976,404.5752c-24.899,10.62488-104.216,31.57239-152.3634,43.87445-10.98285,2.80621-18.71-10.5993-10.77679-18.69629,34.84039-35.55969,92.86011-93.83435,114.4079-109.92187-21.65094-16.25067-79.45044-74.46753-114.178-110.01331-7.92169-8.10834-.17572-21.503,10.803-18.68109,48.21582,12.39282,127.69293,33.50208,152.399,44.11914,3.248-26.87573,24.76556-106.03986,38.18536-153.88776,3.06116-10.91449,18.53424-10.90363,21.57983.0152,13.37537,47.95258,34.83289,127.33661,37.99115,154.04114,24.899-10.62494,104.216-31.57239,152.3634-43.87451,10.98285-2.80615,18.71,10.59937,10.77679,18.69629-34.84039,35.55969-92.86011,93.83435-114.4079,109.92188C439.40729,336.41919,497.20679,394.636,531.93439,430.18182Z"/>
</svg>
