<svg xmlns="http://www.w3.org/2000/svg" width="640" height="640" viewBox="0 0 640 640">
  <defs>
    <style>
      .a {
        fill: #231f20;
      }
    </style>
  </defs>
  <title>q</title>
  <path class="a" d="M0,0V640H640V0H0ZM558.61633,331.03284C510.66382,344.40826,431.28,365.8656,404.57526,369.024c10.625,24.89911,31.57233,104.216,43.87439,152.3634,2.80621,10.98279-10.5993,18.7099-18.69629,10.77673C394.19373,497.32379,335.919,439.304,319.83154,417.75629c-16.25073,21.65088-74.46753,79.4505-110.01337,114.1781-8.10828,7.92163-21.50293.17566-18.68109-10.8031,12.39282-48.21576,33.502-127.693,44.1192-152.399-26.87561-3.248-106.03986-24.76556-153.88776-38.1853-10.91455-3.06122-10.90369-18.5343.0152-21.57983,47.95251-13.37543,127.3363-34.83282,154.041-37.99121-10.625-24.89911-31.57233-104.216-43.87439-152.3634-2.80621-10.98279,10.5993-18.71,18.69629-10.77673,35.55969,34.84045,93.83447,92.86029,109.92187,114.408,16.25067-21.651,74.46747-79.4505,110.01331-114.17816,8.10834-7.92163,21.503-.17566,18.68109,10.803-12.39282,48.21582-33.502,127.693-44.1192,152.39911,26.87567,3.248,106.03986,24.76556,153.88776,38.18536C569.546,312.51416,569.53516,327.98724,558.61633,331.03284Z"/>
</svg>
